<svg width="474" height="464" viewBox="0 0 474 464" fill="none" xmlns="http://www.w3.org/2000/svg">
<g filter="url(#filter0_d_488_213)">
<path d="M162.567 69.0075C151.899 73.6461 148.033 88.1802 155.455 96.0658C163.495 104.724 172.618 104.415 182.977 95.4473L188.234 90.8088H247.299C290.901 90.9634 307.136 91.4272 309.455 92.8188C314.249 95.7566 351.976 134.721 351.976 136.885C351.976 137.813 349.811 141.06 347.182 144.152C344.245 147.399 342.08 151.883 341.616 155.749C340.843 161.16 341.307 162.397 346.255 167.345C350.893 171.984 352.749 172.757 358.933 172.757C365.118 172.757 366.819 171.984 370.684 167.964C374.241 164.098 375.168 161.779 375.168 156.367C375.168 150.492 374.395 148.791 368.984 143.534C365.427 140.132 362.799 136.112 362.799 134.102C362.799 131.937 358.624 126.371 351.357 118.795C345.018 112.301 335.586 102.714 330.484 97.3028C315.331 81.5316 312.857 80.7585 271.574 80.7585C252.401 80.7585 225.497 80.6039 211.736 80.2947L186.688 79.9854L181.585 74.5738C176.174 68.6982 168.288 66.5336 162.567 69.0075ZM174.318 81.6862C176.792 86.3248 173.854 92.355 169.061 92.355C164.577 92.355 161.794 89.7264 161.794 85.3971C161.794 78.4392 171.071 75.6561 174.318 81.6862ZM363.417 152.038C364.809 153.275 365.891 155.44 365.891 156.522C365.891 157.604 364.809 159.769 363.417 161.006C358.779 165.644 351.976 163.016 351.976 156.522C351.976 150.028 358.779 147.399 363.417 152.038Z" fill="white"/>
<path d="M122.367 88.4903C115.409 92.2011 114.945 92.9742 113.708 103.488C112.626 112.92 112.316 113.539 103.194 121.733C90.3604 133.484 86.8041 140.906 86.8041 156.059C86.8041 167.501 86.6495 168.119 81.7017 172.912C78.9186 175.541 76.29 179.406 75.8262 181.416C73.5069 190.539 80.1555 199.971 90.515 202.29C94.2258 203.063 99.6375 205.846 102.575 208.32L107.832 212.959H153.29H198.903L204.624 218.37C214.056 227.184 221.787 227.493 229.981 219.143C238.795 210.33 234.465 194.559 222.25 191.312C214.983 189.456 212.2 190.23 204.624 197.033L198.903 202.135H154.991C105.668 202.135 105.822 202.135 109.224 192.085C111.698 184.509 109.997 178.942 103.039 171.521C97.7821 166.109 96.8544 164.099 96.8544 158.533C97.009 144.772 99.1737 140.288 110.152 129.928C120.356 120.342 120.666 120.187 129.324 120.187C138.911 120.187 142.931 117.404 146.332 108.745C151.435 95.2935 135.2 81.687 122.367 88.4903ZM135.2 98.8498C137.828 101.478 137.519 107.045 134.736 109.364C128.861 114.157 119.893 105.189 124.686 99.3136C127.005 96.5305 132.571 96.2212 135.2 98.8498ZM98.4006 181.107C103.658 187.601 95.3082 195.177 88.8142 189.92C85.7218 187.446 85.5672 186.519 87.268 182.962C89.278 178.479 95.3082 177.396 98.4006 181.107ZM222.714 203.063C225.652 205.846 225.807 207.392 223.642 211.567C220.395 217.443 211.272 214.35 211.272 207.238C211.272 201.362 218.54 198.734 222.714 203.063Z" fill="white"/>
<path d="M193.646 109.364C187.307 115.239 186.379 115.549 177.411 115.549C165.041 115.549 158.393 118.95 148.806 130.083C142.158 137.814 140.921 138.741 135.355 138.741C125.614 138.741 118.81 142.452 116.027 148.946C109.842 163.79 123.294 178.169 137.674 172.139C145.096 169.047 147.879 164.254 147.879 154.513C147.879 146.936 148.343 145.854 155.146 138.587C164.887 128.227 169.68 125.908 179.576 126.681C185.606 127.145 189.471 128.691 194.419 132.247C203.232 138.896 211.272 139.051 217.457 132.711C225.497 124.671 225.497 115.239 217.148 107.508C210.036 100.86 202.305 101.478 193.646 109.364ZM212.2 116.322C213.592 119.723 211.582 125.908 208.799 126.99C203.232 129.155 197.666 122.352 200.449 116.94C202.459 113.384 210.963 112.92 212.2 116.322ZM136.282 151.575C138.292 153.121 138.756 154.822 137.983 157.76C136.128 165.645 124.686 164.563 124.686 156.677C124.686 150.183 130.716 147.555 136.282 151.575Z" fill="white"/>
<path d="M242.97 104.571C236.012 107.663 233.692 112.302 233.692 123.28C233.692 132.866 233.229 134.258 229.054 138.896C221.323 147.091 213.437 149.72 200.295 148.637C189.626 147.864 188.544 148.019 183.596 151.73C179.421 154.822 176.483 155.75 170.144 155.75C160.403 155.75 154.837 159.615 152.517 168.119C150.507 175.541 152.208 180.179 158.702 185.591C164.887 190.848 171.381 190.848 179.576 185.9C185.451 182.19 186.997 182.035 209.417 182.035H233.074L241.114 174.304C250.701 164.872 256.112 163.171 272.347 163.79C284.562 164.254 284.717 164.254 285.181 168.583C286.263 177.396 273.893 188.683 261.215 190.539C242.815 193.322 237.558 213.113 252.556 222.39C259.359 226.565 267.245 225.483 273.43 219.762C277.295 215.896 277.759 214.35 277.759 205.846C277.759 196.414 277.913 195.951 283.944 191.157C291.52 184.973 296.313 175.541 296.313 166.418C296.313 154.203 294.922 153.43 272.038 153.121C249.927 152.812 244.516 154.358 238.949 162.089C233.383 169.82 228.899 171.212 207.716 171.212C186.688 171.212 183.132 169.975 186.534 163.635C188.698 159.615 194.11 158.224 203.232 159.461C215.602 161.007 226.116 156.987 235.393 147.091C241.887 140.133 244.516 138.587 250.855 137.35C265.853 134.567 272.038 119.878 262.761 109.364C258.122 104.262 248.845 101.942 242.97 104.571ZM256.112 116.94C259.205 122.816 252.865 129.619 246.99 126.527C240.186 122.816 242.196 114.003 249.927 114.003C252.865 114.003 255.03 115.085 256.112 116.94ZM173.236 167.037C175.092 168.428 175.865 170.593 175.401 173.531C175.092 177.242 174.164 178.324 170.608 178.633C162.877 179.561 159.011 172.758 164.268 167.501C167.206 164.563 169.68 164.408 173.236 167.037ZM266.008 203.063C268.946 205.846 269.1 207.392 266.936 211.567C263.689 217.443 254.566 214.35 254.566 207.238C254.566 201.362 261.833 198.734 266.008 203.063Z" fill="white"/>
<path d="M285.644 105.344C280.542 108.127 277.913 113.538 277.759 121.269C277.759 126.372 278.687 128.691 282.552 132.402C286.572 136.422 288.428 137.195 294.767 137.195C300.952 137.195 303.271 137.968 307.6 141.834C315.795 148.946 316.723 152.812 316.104 176.932L315.64 198.579L310.693 204.3C303.735 212.031 303.58 220.535 310.074 227.029C313.94 230.74 315.795 231.513 322.444 231.513C330.948 231.513 335.277 228.73 338.06 221.308C340.843 214.35 339.761 210.175 333.422 202.908L327.237 195.796V173.531C327.237 161.316 326.464 149.41 325.691 147.091C324.763 144.771 321.671 140.751 318.887 137.968C311.93 131.474 309.765 127.145 311.002 121.733C313.785 109.364 297.395 98.8496 285.644 105.344ZM300.642 119.878C301.261 126.372 296.313 129.31 290.747 125.599C286.108 122.661 285.954 118.022 290.283 114.93C295.076 111.683 300.024 114.002 300.642 119.878ZM326.309 210.33C328.165 211.721 328.938 213.886 328.474 216.824C328.01 220.844 327.237 221.462 323.062 221.926C318.887 222.39 317.65 221.772 316.104 218.215C314.403 214.659 314.558 213.886 317.805 211.258C322.134 207.701 322.753 207.701 326.309 210.33Z" fill="white"/>
<path d="M347.337 184.663C339.915 191.467 339.606 198.115 346.409 207.856C349.502 212.34 351.976 217.597 351.976 219.607C351.976 223.937 347.337 230.276 337.905 238.935C329.092 246.975 324.144 247.284 315.949 240.635C312.857 238.162 307.909 235.533 305.126 235.069C293.066 233.214 283.325 244.656 287.036 256.561C291.056 270.477 311.156 272.796 317.959 260.272C319.66 256.87 321.052 256.252 326.463 256.252C334.504 256.252 342.08 251.304 353.986 238.316C361.871 229.658 362.799 227.802 362.799 221.927C362.799 216.206 363.572 214.659 368.984 209.712C374.086 205.073 375.168 203.063 375.168 198.424C375.168 191.003 371.303 183.89 366.51 182.035C359.243 179.252 352.285 180.179 347.337 184.663ZM363.417 192.24C366.355 195.023 366.51 196.569 364.345 200.744C361.253 206.465 351.976 203.527 351.976 196.724C351.976 190.23 358.779 187.601 363.417 192.24ZM309.301 248.83C311.465 252.387 308.837 256.87 304.198 257.489C297.704 258.417 293.839 251.613 298.168 247.284C300.797 244.656 307.136 245.583 309.301 248.83Z" fill="white"/>
<path d="M160.867 221.308C156.847 225.328 155.61 227.802 155.61 232.131C155.61 244.037 162.104 250.067 175.092 250.067C179.885 250.067 183.441 251.149 186.07 253.159C189.626 255.942 192.409 256.251 215.602 256.251H241.114L247.763 262.436C255.184 269.239 259.514 270.013 267.863 266.147C278.841 260.89 281.006 248.366 272.502 239.862C268.172 235.532 266.008 234.605 260.905 234.605C256.885 234.605 253.483 235.687 251.783 237.388C244.052 245.119 242.66 245.428 217.457 245.428C200.758 245.428 192.718 244.81 191.481 243.573C190.399 242.49 189.626 238.316 189.626 234.141C189.626 227.647 188.853 225.791 184.369 221.308C180.039 216.978 177.875 216.05 172.618 216.05C167.361 216.05 165.196 216.978 160.867 221.308ZM178.493 232.595C178.802 236.306 178.184 237.852 175.865 239.243C171.072 241.717 166.433 238.779 166.433 233.213C166.433 227.647 167.67 226.565 173.391 227.183C177.411 227.647 178.029 228.42 178.493 232.595ZM266.162 251.613C266.162 256.561 265.698 257.025 261.214 257.488C255.184 258.107 251.937 253.623 254.566 248.366C255.957 246.047 257.504 245.428 261.214 245.737C265.698 246.201 266.162 246.665 266.162 251.613Z" fill="white"/>
<path d="M270.182 273.415C264.461 279.136 263.843 286.867 268.481 294.598C272.038 300.319 276.831 302.638 285.335 302.638C297.859 302.638 304.044 312.379 304.044 331.861C304.044 342.839 304.353 344.23 307.136 345.158C308.837 345.622 310.847 345.777 311.466 345.313C313.63 344.076 314.867 319.027 313.166 312.688C312.239 309.596 308.837 304.029 305.435 300.319C300.488 294.907 299.405 292.742 299.405 287.331C299.405 275.116 293.375 268.776 282.088 268.622C276.058 268.622 274.048 269.395 270.182 273.415ZM286.727 279.754C287.809 280.837 288.582 283.001 288.582 284.857C288.582 291.66 279.305 294.598 276.212 288.877C272.502 281.919 281.315 274.343 286.727 279.754Z" fill="white"/>
<path d="M105.049 372.216C98.4005 386.44 97.4728 389.224 99.792 389.224C101.802 389.224 104.74 384.43 110.461 372.216C116.955 357.991 117.882 355.207 115.563 355.207C113.708 355.207 110.615 360.001 105.049 372.216Z" fill="white"/>
<path d="M120.82 361.702C121.439 364.485 123.449 371.134 125.304 376.7C128.087 385.668 129.015 386.905 132.417 386.905C135.509 386.905 137.364 385.05 141.694 377.319C147.415 366.959 148.652 366.032 150.043 370.361C150.662 371.907 153.136 376.546 155.609 380.566C159.32 386.287 161.021 387.833 163.804 387.369C166.587 387.06 167.824 384.895 170.607 376.391C172.463 370.67 174.473 363.712 174.937 361.238C176.019 356.754 175.71 356.6 171.535 357.064C167.67 357.528 166.897 358.455 165.041 365.568C163.804 370.052 162.413 373.763 161.949 373.763C161.33 373.763 158.856 370.052 156.228 365.568C149.734 354.126 145.714 354.435 139.22 366.65C136.591 371.598 133.963 375 133.654 374.381C133.19 373.608 131.953 369.279 130.716 364.795C128.86 357.373 128.396 356.754 124.222 356.754C120.047 356.754 119.892 357.064 120.82 361.702Z" fill="white"/>
<path d="M180.349 372.216V387.678H195.501C209.572 387.523 210.654 387.368 213.282 383.812L216.066 379.947H202.768C192.1 379.947 189.626 379.483 189.626 377.627C189.626 375.772 191.79 375.308 199.367 375.308C208.18 375.308 212.819 373.607 212.819 370.36C212.819 369.742 207.871 369.123 201.686 368.814C194.574 368.505 190.399 367.732 189.935 366.34C189.471 364.949 192.254 364.485 199.985 364.485C209.417 364.33 210.809 364.021 213.282 360.619L216.066 356.754H198.13H180.349V372.216Z" fill="white"/>
<path d="M223.178 360.619L220.395 364.485H235.238C247.299 364.485 249.927 364.949 249.927 366.804C249.927 368.66 247.299 369.123 235.238 369.123H220.55V378.401V387.678H236.475C254.566 387.678 259.204 385.822 259.204 378.555C259.204 376.236 258.431 373.607 257.504 372.68C256.267 371.443 256.267 370.67 257.504 370.051C260.441 368.196 259.359 361.702 255.803 359.228C253.329 357.372 248.69 356.754 239.104 356.754C226.889 356.909 225.807 357.063 223.178 360.619ZM249.927 377.627C249.927 379.483 247.763 379.947 239.877 379.947C231.991 379.947 229.827 379.483 229.827 377.627C229.827 375.772 231.991 375.308 239.877 375.308C247.763 375.308 249.927 375.772 249.927 377.627Z" fill="white"/>
<path d="M263.07 361.702C263.689 364.485 265.699 371.134 267.554 376.7C270.337 385.668 271.265 386.905 274.666 386.905C277.759 386.905 279.614 385.049 283.944 377.318C289.665 366.959 290.901 366.031 292.293 370.361C292.912 371.907 295.385 376.545 297.859 380.565C304.508 391.08 308.064 390.152 312.703 376.7C314.558 370.979 316.568 364.176 317.187 361.393C318.269 356.754 318.114 356.6 313.785 357.063C309.92 357.527 309.147 358.455 307.291 365.567C306.054 370.051 304.663 373.762 304.199 373.762C303.58 373.762 301.106 370.051 298.478 365.567C294.922 359.383 293.066 357.527 290.128 357.527C287.191 357.527 285.335 359.383 281.779 365.567C279.15 370.051 276.677 373.762 276.213 373.762C275.594 373.762 274.203 369.897 273.12 365.258C271.265 357.373 270.801 356.754 266.626 356.754C262.297 356.754 262.142 357.063 263.07 361.702Z" fill="white"/>
<path d="M322.598 372.216V387.678H327.237H331.875V372.216V356.754H327.237H322.598V372.216Z" fill="white"/>
<path d="M339.142 360.619L336.514 364.33L347.646 364.794L358.624 365.258L348.419 372.989C340.998 378.555 338.214 381.648 338.369 383.812C338.833 386.595 340.225 386.905 354.913 387.369C368.674 387.678 371.148 387.369 373.004 385.049C374.086 383.503 375.168 381.802 375.168 381.184C375.168 380.565 370.53 379.947 364.809 379.638L354.449 379.174L364.809 370.824C379.498 359.228 378.725 357.682 358.16 357.218C342.544 356.754 341.771 356.909 339.142 360.619Z" fill="white"/>
<path d="M80.9286 365.413C75.0531 368.35 70.5691 371.597 71.033 372.68C71.3422 373.607 76.5993 376.7 82.6294 379.483C91.2881 383.348 93.762 383.967 93.762 382.266C93.762 380.874 90.6696 378.401 86.8041 376.545C82.9387 374.69 79.8463 372.68 79.8463 372.216C79.8463 371.752 82.9387 369.742 86.8041 367.886C90.6696 366.031 93.762 363.403 93.762 362.166C93.762 359.073 92.9889 359.228 80.9286 365.413Z" fill="white"/>
<path d="M379.807 362.166C379.807 363.712 382.59 365.877 386.765 367.732C390.63 369.433 393.723 371.288 393.723 371.907C393.723 372.68 390.63 374.69 386.765 376.545C379.343 380.102 376.56 385.668 383.518 383.039C392.486 379.638 403 373.608 403 371.752C403 370.206 394.496 365.722 381.044 360.156C380.426 359.846 379.807 360.774 379.807 362.166Z" fill="white"/>
</g>
<defs>
<filter id="filter0_d_488_213" x="0.0954742" y="0.432158" width="473.809" height="463.033" filterUnits="userSpaceOnUse" color-interpolation-filters="sRGB">
<feFlood flood-opacity="0" result="BackgroundImageFix"/>
<feColorMatrix in="SourceAlpha" type="matrix" values="0 0 0 0 0 0 0 0 0 0 0 0 0 0 0 0 0 0 127 0" result="hardAlpha"/>
<feOffset dy="3.33668"/>
<feGaussianBlur stdDeviation="35.4523"/>
<feComposite in2="hardAlpha" operator="out"/>
<feColorMatrix type="matrix" values="0 0 0 0 0 0 0 0 0 0 0 0 0 0 0 0 0 0 0.25 0"/>
<feBlend mode="normal" in2="BackgroundImageFix" result="effect1_dropShadow_488_213"/>
<feBlend mode="normal" in="SourceGraphic" in2="effect1_dropShadow_488_213" result="shape"/>
</filter>
</defs>
</svg>
